<?xml version="1.0" standalone="no"?>
<!DOCTYPE svg PUBLIC "-//W3C//DTD SVG 20010904//EN"
 "http://www.w3.org/TR/2001/REC-SVG-20010904/DTD/svg10.dtd">
<svg version="1.0" xmlns="http://www.w3.org/2000/svg"
 width="463.000000pt" height="539.000000pt" viewBox="0 0 463.000000 539.000000"
 preserveAspectRatio="xMidYMid meet">

<g transform="translate(0.000000,539.000000) scale(0.100000,-0.100000)"
fill="#000000" stroke="none">
<path d="M939 5307 c-138 -41 -225 -105 -430 -314 -145 -148 -199 -209 -279
-318 -66 -90 -135 -231 -156 -320 -23 -93 -23 -272 0 -390 9 -49 39 -202 66
-340 27 -137 67 -347 90 -465 155 -814 217 -1117 231 -1140 7 -11 8 -8 4 10
-3 14 -6 34 -6 45 0 11 1 52 1 90 0 77 -50 372 -140 830 -175 889 -210 1086
-210 1196 0 150 66 327 177 470 140 182 367 420 483 507 129 96 275 142 389
124 36 -6 80 -9 96 -6 21 3 25 2 11 -4 -15 -7 -12 -10 22 -20 22 -7 47 -10 55
-6 8 3 18 1 22 -5 4 -7 -1 -8 -12 -4 -10 3 -16 4 -13 0 3 -3 55 -24 115 -47
61 -23 138 -53 173 -67 37 -14 72 -22 85 -18 17 5 19 4 7 -4 -8 -6 -12 -11 -9
-11 3 0 57 -18 120 -40 259 -92 362 -109 522 -86 63 10 124 18 136 19 11 1 21
5 21 10 0 4 8 4 17 -2 13 -7 23 -5 37 7 11 9 16 11 12 4 -9 -15 32 -8 74 13
14 7 49 20 78 30 40 13 52 21 47 32 -4 13 -3 14 10 3 9 -7 18 -10 22 -6 3 3 1
6 -6 6 -7 0 -10 4 -7 9 6 10 127 56 139 53 5 -1 5 3 1 9 -5 9 -2 10 9 6 10 -3
17 -2 17 3 0 6 6 10 14 10 8 0 18 5 21 10 4 6 -24 -1 -62 -16 -175 -67 -409
-145 -484 -160 -102 -20 -257 -15 -370 14 -91 23 -295 94 -554 192 -104 40
-223 81 -264 91 -102 26 -224 24 -322 -4z m886 -227 c3 -6 -1 -7 -9 -4 -18 7
-21 14 -7 14 6 0 13 -4 16 -10z m95 -30 c8 -5 11 -10 5 -10 -5 0 -17 5 -25 10
-8 5 -10 10 -5 10 6 0 17 -5 25 -10z m160 -47 c9 -9 -65 9 -74 18 -5 4 8 3 30
-2 21 -6 41 -13 44 -16z"/>
<path d="M3820 5206 c0 -8 5 -18 10 -21 6 -4 8 -10 6 -14 -3 -4 38 -46 89 -95
52 -48 145 -144 206 -214 270 -306 344 -458 343 -697 -1 -94 -11 -157 -67
-435 -85 -419 -120 -601 -207 -1065 -39 -209 -77 -414 -85 -455 -7 -41 -23
-129 -35 -195 -46 -261 -126 -660 -160 -796 -57 -224 -152 -471 -265 -686
-171 -327 -297 -453 -450 -453 -95 1 -165 43 -234 143 -43 64 -70 134 -201
525 -65 197 -133 394 -150 438 -62 155 -119 232 -214 289 -60 35 -50 50 10 17
124 -68 181 -178 347 -667 151 -448 163 -479 204 -553 87 -158 203 -207 338
-144 201 95 478 616 590 1107 14 61 27 137 30 170 3 51 3 54 -4 20 -40 -189
-132 -490 -196 -640 -44 -103 -108 -231 -135 -271 -16 -25 -30 -48 -30 -51 0
-3 -16 -28 -35 -54 -19 -27 -35 -51 -35 -54 0 -6 -13 -21 -85 -100 -45 -49
-57 -57 -65 -45 -8 13 -10 12 -10 -4 0 -13 -5 -16 -16 -12 -11 4 -15 2 -11 -8
3 -8 -1 -17 -9 -20 -10 -4 -13 -2 -8 7 6 9 4 9 -7 1 -14 -11 -79 -25 -79 -17
0 9 28 32 32 27 9 -9 74 26 109 58 38 36 53 63 50 91 -1 9 3 17 8 17 6 0 11 7
11 16 0 8 4 12 10 9 6 -4 7 1 3 11 -5 13 -3 15 7 9 8 -5 11 -4 7 2 -4 6 15 46
41 89 65 107 152 287 166 344 4 16 0 13 -11 -10 -9 -19 -42 -89 -74 -155 -97
-203 -224 -380 -301 -421 -31 -16 -91 -18 -118 -4 -49 26 -108 160 -236 533
-20 59 -39 105 -42 103 -6 -7 22 -101 60 -198 16 -43 34 -92 38 -110 5 -18 21
-64 36 -103 14 -38 26 -81 26 -94 0 -18 2 -20 9 -10 5 8 9 10 10 4 3 -33 11
-60 19 -63 5 -2 6 -10 3 -19 -4 -9 -2 -14 3 -10 6 3 15 -3 22 -14 7 -11 8 -19
2 -19 -5 0 -7 -7 -4 -15 7 -18 -7 -20 -25 -3 -11 11 -11 9 -1 -12 10 -22 8
-21 -20 8 -17 18 -28 37 -24 44 4 6 3 8 -3 5 -5 -4 -15 4 -20 16 -6 12 -20 42
-31 67 -25 53 -83 212 -185 510 -137 396 -167 462 -260 571 -52 61 -61 75 -42
71 12 -2 25 0 29 6 8 13 50 3 73 -17 54 -47 63 -53 63 -43 0 5 -21 31 -46 57
-25 26 -43 49 -41 51 7 8 82 -52 109 -88 63 -82 104 -181 228 -554 154 -461
195 -566 236 -610 54 -58 124 -40 197 49 190 233 381 691 451 1087 10 52 21
115 26 140 5 25 12 81 15 125 4 44 9 87 12 95 3 8 7 22 9 30 2 8 12 60 23 115
11 55 36 174 56 265 36 165 105 508 105 523 0 4 -193 7 -430 7 l-430 0 -16
-24 c-20 -32 -63 -41 -105 -23 -48 20 -64 43 -63 90 1 32 8 47 33 69 42 38 86
37 128 -1 l32 -29 432 4 c238 2 434 5 435 7 4 4 64 291 64 305 0 7 -68 10
-211 10 -228 -1 -229 -1 -229 54 0 17 7 31 19 38 12 6 104 10 229 10 209 0
210 0 215 23 6 23 57 295 57 303 0 6 -60 4 -105 -5 l-40 -8 40 -18 c22 -11 41
-20 43 -21 5 -3 -29 -185 -39 -211 -8 -23 -10 -23 -210 -23 l-201 0 -29 -29
c-40 -41 -40 -91 0 -132 l29 -29 181 0 181 0 0 -27 c0 -24 -6 -54 -35 -180
l-5 -23 -401 0 -401 0 -30 25 c-24 20 -40 25 -88 25 -52 0 -64 -4 -93 -30 -63
-55 -67 -154 -9 -212 51 -51 135 -55 195 -8 24 19 41 20 406 20 l381 0 0 -25
c0 -54 -202 -1119 -261 -1372 -60 -261 -209 -620 -335 -809 -80 -119 -124
-164 -162 -164 -28 0 -32 5 -62 78 -51 122 -95 244 -207 582 -131 396 -160
457 -263 562 -43 44 -73 81 -67 83 134 41 175 66 203 122 17 34 19 67 22 293
3 200 7 258 17 270 27 30 46 91 39 124 -18 83 -67 126 -146 126 -110 0 -174
-126 -113 -225 24 -39 24 -44 25 -252 0 -206 -1 -213 -22 -233 -12 -11 -32
-20 -45 -20 -53 0 -325 -62 -385 -87 -70 -30 -184 -101 -213 -133 -10 -11 -22
-20 -27 -20 -4 0 -8 159 -8 354 0 347 0 354 22 381 12 16 23 47 26 75 9 94
-50 160 -143 160 -43 0 -52 -4 -90 -42 -60 -61 -66 -103 -26 -181 l31 -60 0
-491 0 -492 -61 -189 c-119 -375 -220 -671 -247 -725 -50 -99 -98 -79 -211 90
-130 194 -263 497 -331 755 -16 61 -50 211 -75 335 -67 333 -71 347 -77 324
-25 -94 44 -496 134 -789 91 -295 280 -660 404 -781 45 -43 62 -50 114 -45 66
6 92 63 255 555 l142 431 -3 539 c-4 532 -4 540 -25 562 -44 47 -16 139 47
157 89 26 156 -91 92 -160 l-25 -28 -1 -445 -1 -445 31 40 c153 193 293 263
616 306 145 19 136 0 140 298 3 245 2 251 -19 280 -41 56 -19 129 45 151 47
15 85 -3 109 -53 23 -45 17 -79 -18 -109 l-25 -22 0 -253 c0 -279 -3 -299 -59
-345 -19 -17 -81 -42 -163 -68 -150 -48 -214 -78 -334 -157 -103 -67 -162
-133 -214 -238 -21 -44 -102 -271 -180 -503 -78 -237 -156 -455 -177 -495
-118 -226 -314 -253 -492 -68 -118 123 -284 418 -382 684 -70 187 -100 296
-149 537 -17 85 -43 207 -57 270 -14 63 -28 126 -30 140 -6 35 -46 120 -56
120 -4 0 -6 -15 -3 -32 3 -18 15 -91 27 -163 32 -201 105 -560 133 -658 106
-361 307 -758 479 -943 101 -109 242 -159 353 -124 62 19 142 79 184 137 55
77 86 156 235 603 73 217 150 430 170 472 39 80 101 153 157 188 100 61 239
-25 319 -194 21 -45 86 -223 144 -396 181 -535 203 -593 273 -685 130 -173
347 -180 511 -16 130 130 279 385 388 666 109 278 132 369 243 965 86 460 278
1468 361 1895 66 341 72 380 72 500 0 210 -47 343 -192 535 -135 179 -511 552
-511 506z m-678 -5009 c6 -11 5 -17 -2 -17 -5 0 -10 7 -10 15 0 9 -6 12 -15 9
-8 -4 -15 -2 -15 4 0 16 31 7 42 -11z"/>
<path d="M1001 5119 c-18 -6 -31 -12 -29 -14 2 -3 22 0 44 6 21 6 75 9 119 7
44 -3 69 -2 55 2 -35 11 -149 10 -189 -1z"/>
<path d="M1228 5103 c7 -3 16 -2 19 1 4 3 -2 6 -13 5 -11 0 -14 -3 -6 -6z"/>
<path d="M879 5058 c-84 -56 -344 -315 -447 -446 -171 -215 -211 -374 -157
-622 8 -36 12 -47 10 -25 -25 213 -27 238 -15 303 23 124 71 212 204 372 97
117 351 370 407 406 26 16 55 34 65 41 11 6 14 12 8 12 -7 1 -40 -18 -75 -41z"/>
<path d="M1055 5093 c-54 -11 -116 -40 -170 -79 -74 -53 -224 -200 -342 -336
-144 -167 -195 -248 -228 -363 -24 -82 -15 -246 23 -430 16 -77 33 -157 36
-177 l7 -38 521 0 520 0 35 30 c37 33 61 37 102 16 82 -43 58 -174 -35 -192
-31 -6 -40 -2 -68 25 l-32 31 -507 0 -507 0 0 -27 c0 -15 12 -89 26 -165 l26
-138 212 0 c230 0 256 -6 256 -55 0 -52 -14 -55 -236 -55 -185 0 -204 -2 -204
-17 0 -9 12 -79 27 -156 l28 -139 155 6 c85 3 281 2 435 -2 l280 -7 31 28 c68
59 164 16 164 -73 0 -33 -6 -48 -29 -71 -40 -40 -86 -39 -132 2 l-34 31 -230
-7 c-126 -4 -248 -12 -270 -18 -40 -11 -39 -11 45 -18 47 -4 164 -7 261 -8
161 -1 178 -3 199 -21 29 -25 94 -43 123 -34 132 40 158 194 45 265 -44 27
-128 22 -161 -9 -22 -20 -34 -21 -412 -28 -278 -5 -396 -4 -411 4 -17 9 -24
30 -37 111 -10 55 -17 105 -17 111 0 6 60 10 175 10 195 0 223 7 245 59 14 35
8 69 -19 102 -19 24 -23 24 -232 29 l-213 5 -23 110 c-12 61 -22 113 -23 118
0 4 209 7 464 7 l464 0 43 -25 c106 -60 222 4 222 122 0 113 -135 180 -226
111 l-36 -28 -480 0 c-448 0 -480 1 -485 18 -21 72 -68 334 -73 407 -13 203
69 348 365 649 202 205 279 256 387 256 63 0 117 -15 300 -85 111 -42 384
-141 449 -162 54 -17 87 -43 55 -43 -27 0 -106 -61 -125 -97 -17 -34 -19 -64
-22 -291 -3 -249 -4 -254 -28 -289 -46 -68 -23 -168 47 -203 70 -36 139 -21
184 38 29 39 28 130 -2 171 -22 29 -23 38 -23 235 0 171 3 207 15 220 16 16
31 20 309 100 87 26 204 62 259 81 55 19 104 35 109 35 4 0 8 -148 8 -330 0
-193 -4 -330 -9 -330 -5 0 -17 -20 -26 -45 -24 -62 -14 -109 35 -157 33 -34
43 -38 86 -38 55 0 95 22 125 66 33 50 19 162 -22 185 -18 9 -19 26 -19 359
l0 350 23 13 c12 8 138 58 280 112 237 91 256 100 235 111 -21 11 -37 8 -109
-16 -98 -32 -421 -154 -445 -168 -15 -8 -17 -49 -21 -391 l-5 -382 26 -24 c46
-42 43 -107 -6 -152 -30 -27 -94 -22 -125 10 -32 32 -34 97 -4 138 20 27 21
40 21 398 l0 370 -53 -24 c-65 -28 -382 -130 -562 -180 -71 -20 -137 -43 -147
-52 -16 -15 -18 -38 -18 -256 0 -229 1 -242 21 -263 14 -15 20 -36 21 -65 0
-36 -5 -48 -31 -71 -44 -40 -84 -37 -128 7 -32 32 -35 40 -30 72 4 21 15 49
26 63 17 24 19 49 23 297 3 254 4 272 23 293 28 31 84 58 210 101 97 33 105
38 70 39 -64 1 -232 46 -370 100 -27 10 -93 35 -145 54 -52 19 -142 53 -200
76 -160 62 -272 87 -335 73z"/>
<path d="M1295 5080 c27 -12 43 -12 25 0 -8 5 -22 9 -30 9 -10 0 -8 -3 5 -9z"/>
<path d="M1369 5055 c18 -8 36 -15 40 -15 13 1 -45 29 -59 29 -8 0 0 -6 19
-14z"/>
<path d="M3556 5062 c-7 -12 5 -25 47 -48 106 -58 418 -376 524 -534 117 -175
132 -289 74 -574 -38 -186 -45 -206 -68 -207 -10 -1 -1 -6 20 -11 21 -6 40 -9
42 -7 8 8 65 282 81 389 21 144 11 222 -46 337 -66 136 -232 335 -432 518
-109 99 -225 165 -242 137z"/>
<path d="M1466 5016 c50 -22 82 -27 39 -7 -22 11 -47 20 -55 20 -8 0 -1 -6 16
-13z"/>
<path d="M3939 4825 c295 -306 379 -454 382 -675 2 -84 2 -84 8 -25 9 77 -2
166 -28 236 -56 150 -206 341 -421 537 -81 74 -72 63 59 -73z"/>
<path d="M454 4808 l-29 -33 33 29 c30 28 37 36 29 36 -2 0 -16 -15 -33 -32z"/>
<path d="M211 4473 c-10 -26 -10 -27 4 -9 8 11 15 23 15 28 0 15 -7 8 -19 -19z"/>
<path d="M176 4390 c-40 -100 -44 -254 -11 -438 87 -485 246 -1311 285 -1472
15 -65 11 10 -5 101 -73 396 -126 676 -180 949 -107 544 -107 543 -103 680 3
82 10 140 21 170 20 56 15 65 -7 10z"/>
<path d="M2289 4405 c-4 -5 -10 -39 -13 -75 -16 -144 -89 -448 -143 -595 -92
-250 -198 -341 -498 -429 -123 -35 -352 -89 -438 -101 -26 -4 -47 -9 -45 -10
2 -2 93 -21 204 -44 349 -70 522 -137 630 -245 122 -122 200 -340 270 -751 15
-88 30 -164 34 -168 4 -4 15 41 24 100 54 331 119 570 193 702 20 36 62 91 93
122 115 112 359 200 710 255 58 9 112 19 120 22 8 2 -39 15 -105 27 -246 47
-480 114 -605 173 -192 92 -299 313 -389 802 -17 91 -32 179 -33 195 -2 17 -6
26 -9 20z m17 -335 c8 -74 57 -272 84 -340 75 -190 167 -310 287 -373 75 -39
260 -105 368 -131 39 -9 77 -19 85 -22 8 -3 -28 -17 -80 -30 -208 -53 -365
-117 -453 -185 -122 -93 -211 -278 -277 -574 l-27 -120 -13 60 c-24 119 -62
252 -96 334 -105 260 -229 362 -559 460 -55 16 -120 33 -145 38 l-45 9 60 17
c276 79 421 138 503 205 49 40 119 141 156 225 58 131 126 385 126 469 0 59
17 31 26 -42z"/>
<path d="M1681 3151 c159 -54 282 -116 346 -175 84 -76 168 -231 219 -401 23
-78 32 -88 27 -28 -10 106 -76 296 -135 383 -95 143 -278 240 -478 254 l-95 7
116 -40z"/>
<path d="M2830 3173 c-156 -26 -333 -142 -408 -266 -46 -76 -90 -210 -97 -293
l-6 -69 26 64 c13 34 50 115 81 179 44 92 67 127 113 171 65 64 172 124 323
181 l103 39 -55 -1 c-30 0 -66 -3 -80 -5z"/>
<path d="M4433 4150 c0 -36 2 -50 4 -32 2 17 2 47 0 65 -2 17 -4 3 -4 -33z"/>
<path d="M4312 4040 c0 -14 2 -19 5 -12 2 6 2 18 0 25 -3 6 -5 1 -5 -13z"/>
<path d="M4422 4030 c0 -14 2 -19 5 -12 2 6 2 18 0 25 -3 6 -5 1 -5 -13z"/>
<path d="M4412 3970 c0 -14 2 -19 5 -12 2 6 2 18 0 25 -3 6 -5 1 -5 -13z"/>
<path d="M4291 3924 c0 -11 3 -14 6 -6 3 7 2 16 -1 19 -3 4 -6 -2 -5 -13z"/>
<path d="M4377 3808 c-154 -726 -328 -1660 -312 -1676 3 -3 5 -1 5 4 0 5 11
63 25 129 14 66 43 215 65 330 76 406 151 801 180 945 43 218 72 380 68 391
-2 5 -16 -51 -31 -123z"/>
<path d="M291 3904 c0 -11 3 -14 6 -6 3 7 2 16 -1 19 -3 4 -6 -2 -5 -13z"/>
<path d="M302 3850 c0 -14 2 -19 5 -12 2 6 2 18 0 25 -3 6 -5 1 -5 -13z"/>
<path d="M311 3794 c0 -11 3 -14 6 -6 3 7 2 16 -1 19 -3 4 -6 -2 -5 -13z"/>
<path d="M322 3750 c0 -14 2 -19 5 -12 2 6 2 18 0 25 -3 6 -5 1 -5 -13z"/>
<path d="M3000 3751 c-45 -24 -73 -72 -73 -126 0 -79 64 -145 141 -145 36 0
81 20 101 44 10 12 32 16 82 16 59 0 91 11 77 26 -3 2 -39 7 -81 10 -72 7 -77
5 -107 -20 -69 -58 -170 -15 -170 72 0 33 6 45 35 71 45 39 83 40 126 4 31
-27 35 -27 148 -25 64 1 170 5 236 9 170 10 103 20 -136 22 -165 1 -199 3
-210 17 -37 45 -112 56 -169 25z"/>
<path d="M4251 3724 c0 -11 3 -14 6 -6 3 7 2 16 -1 19 -3 4 -6 -2 -5 -13z"/>
<path d="M332 3690 c0 -14 2 -19 5 -12 2 6 2 18 0 25 -3 6 -5 1 -5 -13z"/>
<path d="M4241 3664 c0 -11 3 -14 6 -6 3 7 2 16 -1 19 -3 4 -6 -2 -5 -13z"/>
<path d="M371 3484 c0 -11 3 -14 6 -6 3 7 2 16 -1 19 -3 4 -6 -2 -5 -13z"/>
<path d="M382 3430 c0 -14 2 -19 5 -12 2 6 2 18 0 25 -3 6 -5 1 -5 -13z"/>
<path d="M4192 3420 c0 -14 2 -19 5 -12 2 6 2 18 0 25 -3 6 -5 1 -5 -13z"/>
<path d="M4182 3370 c0 -14 2 -19 5 -12 2 6 2 18 0 25 -3 6 -5 1 -5 -13z"/>
<path d="M4171 3314 c0 -11 3 -14 6 -6 3 7 2 16 -1 19 -3 4 -6 -2 -5 -13z"/>
<path d="M4162 3260 c0 -14 2 -19 5 -12 2 6 2 18 0 25 -3 6 -5 1 -5 -13z"/>
<path d="M4152 3205 c0 -16 2 -22 5 -12 2 9 2 23 0 30 -3 6 -5 -1 -5 -18z"/>
<path d="M4136 3129 c-4 -23 -5 -44 -2 -46 2 -2 7 14 11 37 4 23 5 43 2 46 -2
3 -7 -14 -11 -37z"/>
<path d="M3188 2773 c18 -2 45 -2 60 0 15 2 0 4 -33 4 -33 0 -45 -2 -27 -4z"/>
<path d="M3323 2773 c9 -2 23 -2 30 0 6 3 -1 5 -18 5 -16 0 -22 -2 -12 -5z"/>
<path d="M575 2720 c-5 -8 38 -253 57 -325 5 -22 20 -53 31 -70 12 -16 21 -32
20 -35 -1 -3 1 -7 3 -9 2 -2 4 1 4 8 0 17 -37 223 -55 312 -8 39 -15 81 -15
93 0 23 -34 43 -45 26z"/>
<path d="M751 1934 c0 -11 3 -14 6 -6 3 7 2 16 -1 19 -3 4 -6 -2 -5 -13z"/>
<path d="M610 1656 c0 -24 65 -369 85 -451 122 -498 389 -987 590 -1077 142
-63 273 6 355 186 17 38 92 249 166 469 160 478 204 575 295 662 35 33 80 73
99 88 25 20 28 25 10 16 -79 -37 -181 -142 -243 -250 -31 -53 -27 -42 -198
-544 -175 -516 -206 -573 -321 -593 -29 -6 -55 -8 -58 -5 -8 8 44 42 55 36 5
-4 7 -3 3 1 -4 5 4 20 18 35 46 48 86 133 149 315 69 198 195 596 194 611 0 6
-60 -165 -133 -380 -135 -399 -165 -473 -209 -513 -32 -31 -94 -39 -133 -19
-37 20 -91 70 -135 127 -76 97 -204 339 -274 518 -15 39 -30 70 -33 68 -11
-12 131 -342 157 -366 3 -3 17 -27 30 -55 14 -27 42 -75 63 -105 39 -57 47
-76 26 -64 -8 4 -10 3 -5 -2 5 -5 13 -10 18 -10 5 -1 11 -2 14 -3 3 0 1 -11
-6 -22 -7 -13 -7 -19 -1 -15 6 3 13 2 17 -4 3 -5 1 -10 -4 -10 -6 0 -11 -5
-11 -11 0 -5 5 -7 12 -3 7 4 8 3 4 -4 -8 -13 -36 -5 -36 10 0 6 -7 8 -15 4 -9
-3 -15 0 -15 9 0 8 -4 14 -8 12 -26 -7 -147 190 -225 363 -131 294 -189 481
-258 824 -25 128 -39 181 -39 152z"/>
<path d="M772 1355 c0 -16 3 -39 8 -50 l9 -20 -1 20 c0 11 -4 34 -8 50 l-8 30
0 -30z"/>
<path d="M797 1250 c3 -19 12 -53 19 -75 13 -38 13 -38 7 -5 -3 19 -12 53 -19
75 -13 38 -13 38 -7 5z"/>
<path d="M831 1125 c1 -19 18 -51 18 -35 0 8 -4 22 -9 30 -5 8 -9 11 -9 5z"/>
<path d="M856 1050 c4 -14 13 -38 20 -55 11 -24 13 -25 8 -5 -4 14 -13 39 -20
55 -11 24 -13 25 -8 5z"/>
<path d="M2830 961 c0 -11 4 -22 9 -25 4 -3 6 6 3 19 -5 30 -12 33 -12 6z"/>
<path d="M3360 238 c-10 -21 -10 -21 3 -6 8 10 18 14 22 10 5 -4 5 -1 1 6 -10
17 -14 15 -26 -10z"/>
</g>
</svg>
